<?xml version="1.0" encoding="UTF-8" standalone="no"?>
<svg xmlns="http://www.w3.org/2000/svg" width="40" height="40" viewBox="0 0 40 40">
  <circle cx="20" cy="20" r="20" fill="#dbeafe" />
  <g transform="translate(10, 8)" fill="#2563eb">
    <path d="M18,8 L2,8 C0.8954305,8 0,8.8954305 0,10 L0,22 C0,23.1045695 0.8954305,24 2,24 L18,24 C19.1045695,24 20,23.1045695 20,22 L20,10 C20,8.8954305 19.1045695,8 18,8 Z M18,22 L2,22 L2,10 L18,10 L18,22 Z" />
    <path d="M14,0 L6,0 C4.8954305,0 4,0.8954305 4,2 L4,8 L6,8 L6,2 L14,2 L14,8 L16,8 L16,2 C16,0.8954305 15.1045695,0 14,0 Z" />
    <rect x="5" y="14" width="4" height="4" />
    <rect x="11" y="14" width="4" height="4" />
  </g>
</svg>
