<?xml version="1.0" encoding="UTF-8" standalone="no"?>
<svg xmlns="http://www.w3.org/2000/svg" width="40" height="40" viewBox="0 0 40 40">
  <circle cx="20" cy="20" r="20" fill="#dbeafe" />
  <g transform="translate(8, 10)" fill="#2563eb">
    <path d="M22,0 L2,0 C0.8954305,0 0,0.8954305 0,2 L0,16 C0,17.1045695 0.8954305,18 2,18 L22,18 C23.1045695,18 24,17.1045695 24,16 L24,2 C24,0.8954305 23.1045695,0 22,0 Z M22,16 L2,16 L2,2 L22,2 L22,16 Z" />
    <path d="M15,20 L9,20 L9,22 L15,22 L15,20 Z" />
    <path d="M19,20 L17,20 L17,22 L19,22 L19,20 Z" />
    <path d="M7,20 L5,20 L5,22 L7,22 L7,20 Z" />
  </g>
</svg>
