<?xml version="1.0" encoding="UTF-8" standalone="no"?>
<svg xmlns="http://www.w3.org/2000/svg" width="40" height="40" viewBox="0 0 40 40">
  <circle cx="20" cy="20" r="20" fill="#dbeafe" />
  <g transform="translate(8, 8)" fill="#2563eb">
    <path d="M12,16 C14.209139,16 16,17.790861 16,20 C16,22.209139 14.209139,24 12,24 C9.790861,24 8,22.209139 8,20 C8,17.790861 9.790861,16 12,16 Z" />
    <path d="M12,8 C16.418278,8 20,11.581722 20,16 L17,16 C17,13.2385763 14.7614237,11 12,11 C9.23857625,11 7,13.2385763 7,16 L4,16 C4,11.581722 7.58172205,8 12,8 Z" />
    <path d="M12,0 C20.836556,0 28,7.163444 28,16 L25,16 C25,8.8202983 19.1797017,3 12,3 C4.8202983,3 -1,8.8202983 -1,16 L-4,16 C-4,7.163444 3.163444,0 12,0 Z" />
  </g>
</svg>
